<mxfile host="www.draw.io" modified="2019-12-09T06:08:30.065Z" agent="Mozilla/5.0 (Windows NT 10.0; Win64; x64) AppleWebKit/537.36 (KHTML, like Gecko) Chrome/78.0.3904.108 Safari/537.36" etag="vrLmVGHouC8nMIkynY24" version="12.3.8" type="github" pages="1">
  <diagram id="NeXGAicKA5M1p0lkmtBq" name="Page-1">
    <mxGraphModel dx="1038" dy="548" grid="1" gridSize="10" guides="1" tooltips="1" connect="1" arrows="1" fold="1" page="1" pageScale="1" pageWidth="850" pageHeight="1100" math="0" shadow="0">
      <root>
        <mxCell id="0"/>
        <mxCell id="1" parent="0"/>
        <mxCell id="diniEmlQszHzwRYnbZM4-49" value="Coach (Instructor)" style="shape=umlLifeline;participant=umlActor;perimeter=lifelinePerimeter;whiteSpace=wrap;html=1;container=1;collapsible=0;recursiveResize=0;verticalAlign=top;spacingTop=36;labelBackgroundColor=#ffffff;outlineConnect=0;" parent="1" vertex="1">
          <mxGeometry x="110" y="70" width="20" height="470" as="geometry"/>
        </mxCell>
        <mxCell id="diniEmlQszHzwRYnbZM4-52" value="" style="html=1;points=[];perimeter=orthogonalPerimeter;" parent="diniEmlQszHzwRYnbZM4-49" vertex="1">
          <mxGeometry x="5" y="90" width="10" height="140" as="geometry"/>
        </mxCell>
        <mxCell id="diniEmlQszHzwRYnbZM4-62" value="" style="html=1;points=[];perimeter=orthogonalPerimeter;" parent="diniEmlQszHzwRYnbZM4-49" vertex="1">
          <mxGeometry x="5" y="270" width="10" height="150" as="geometry"/>
        </mxCell>
        <mxCell id="diniEmlQszHzwRYnbZM4-50" value="&amp;lt;&amp;lt; System(Profile API) &amp;gt;&amp;gt;" style="shape=umlLifeline;perimeter=lifelinePerimeter;whiteSpace=wrap;html=1;container=1;collapsible=0;recursiveResize=0;outlineConnect=0;" parent="1" vertex="1">
          <mxGeometry x="250" y="70" width="150" height="470" as="geometry"/>
        </mxCell>
        <mxCell id="diniEmlQszHzwRYnbZM4-55" value="Click On Profile" style="html=1;verticalAlign=bottom;endArrow=block;" parent="diniEmlQszHzwRYnbZM4-50" source="diniEmlQszHzwRYnbZM4-49" edge="1">
          <mxGeometry width="80" relative="1" as="geometry">
            <mxPoint x="-5" y="89.5" as="sourcePoint"/>
            <mxPoint x="75" y="89.5" as="targetPoint"/>
          </mxGeometry>
        </mxCell>
        <mxCell id="diniEmlQszHzwRYnbZM4-56" value="" style="html=1;points=[];perimeter=orthogonalPerimeter;" parent="diniEmlQszHzwRYnbZM4-50" vertex="1">
          <mxGeometry x="70" y="90" width="10" height="140" as="geometry"/>
        </mxCell>
        <mxCell id="diniEmlQszHzwRYnbZM4-57" value="SeeOwnProfile()" style="html=1;verticalAlign=bottom;endArrow=block;" parent="diniEmlQszHzwRYnbZM4-50" target="diniEmlQszHzwRYnbZM4-51" edge="1">
          <mxGeometry width="80" relative="1" as="geometry">
            <mxPoint x="80" y="110" as="sourcePoint"/>
            <mxPoint x="160" y="110" as="targetPoint"/>
          </mxGeometry>
        </mxCell>
        <mxCell id="diniEmlQszHzwRYnbZM4-63" value="" style="html=1;points=[];perimeter=orthogonalPerimeter;" parent="diniEmlQszHzwRYnbZM4-50" vertex="1">
          <mxGeometry x="70" y="270" width="10" height="150" as="geometry"/>
        </mxCell>
        <mxCell id="diniEmlQszHzwRYnbZM4-66" value="EditProfile(Data)" style="html=1;verticalAlign=bottom;endArrow=block;entryX=0.5;entryY=-0.002;entryDx=0;entryDy=0;entryPerimeter=0;" parent="diniEmlQszHzwRYnbZM4-50" target="diniEmlQszHzwRYnbZM4-64" edge="1">
          <mxGeometry width="80" relative="1" as="geometry">
            <mxPoint x="80" y="290" as="sourcePoint"/>
            <mxPoint x="160" y="290" as="targetPoint"/>
          </mxGeometry>
        </mxCell>
        <mxCell id="diniEmlQszHzwRYnbZM4-51" value="Coach (Instructor)" style="shape=umlLifeline;perimeter=lifelinePerimeter;whiteSpace=wrap;html=1;container=1;collapsible=0;recursiveResize=0;outlineConnect=0;" parent="1" vertex="1">
          <mxGeometry x="500" y="70" width="100" height="470" as="geometry"/>
        </mxCell>
        <mxCell id="diniEmlQszHzwRYnbZM4-58" value="" style="html=1;points=[];perimeter=orthogonalPerimeter;" parent="diniEmlQszHzwRYnbZM4-51" vertex="1">
          <mxGeometry x="45" y="110" width="10" height="100" as="geometry"/>
        </mxCell>
        <mxCell id="diniEmlQszHzwRYnbZM4-64" value="" style="html=1;points=[];perimeter=orthogonalPerimeter;" parent="diniEmlQszHzwRYnbZM4-51" vertex="1">
          <mxGeometry x="45" y="290" width="10" height="110" as="geometry"/>
        </mxCell>
        <mxCell id="diniEmlQszHzwRYnbZM4-61" value="Return Profile Data" style="html=1;verticalAlign=bottom;endArrow=open;dashed=1;endSize=8;entryX=1.24;entryY=0.821;entryDx=0;entryDy=0;entryPerimeter=0;" parent="1" source="diniEmlQszHzwRYnbZM4-58" target="diniEmlQszHzwRYnbZM4-56" edge="1">
          <mxGeometry x="0.2625" y="-5" relative="1" as="geometry">
            <mxPoint x="530" y="280" as="sourcePoint"/>
            <mxPoint x="350" y="275" as="targetPoint"/>
            <mxPoint as="offset"/>
          </mxGeometry>
        </mxCell>
        <mxCell id="diniEmlQszHzwRYnbZM4-65" value="Click On Edit Profile" style="html=1;verticalAlign=bottom;endArrow=block;exitX=1.02;exitY=0.012;exitDx=0;exitDy=0;exitPerimeter=0;entryX=-0.12;entryY=0.02;entryDx=0;entryDy=0;entryPerimeter=0;" parent="1" source="diniEmlQszHzwRYnbZM4-62" target="diniEmlQszHzwRYnbZM4-63" edge="1">
          <mxGeometry width="80" relative="1" as="geometry">
            <mxPoint x="160" y="350" as="sourcePoint"/>
            <mxPoint x="240" y="350" as="targetPoint"/>
          </mxGeometry>
        </mxCell>
        <mxCell id="diniEmlQszHzwRYnbZM4-67" value="Return Edit Profile Status" style="html=1;verticalAlign=bottom;endArrow=open;dashed=1;endSize=8;entryX=1.32;entryY=0.868;entryDx=0;entryDy=0;entryPerimeter=0;" parent="1" source="diniEmlQszHzwRYnbZM4-64" target="diniEmlQszHzwRYnbZM4-63" edge="1">
          <mxGeometry x="0.1671" y="-8" relative="1" as="geometry">
            <mxPoint x="550" y="459.96000000000004" as="sourcePoint"/>
            <mxPoint x="330" y="488" as="targetPoint"/>
            <mxPoint as="offset"/>
            <Array as="points">
              <mxPoint x="430" y="470"/>
              <mxPoint x="380" y="470"/>
            </Array>
          </mxGeometry>
        </mxCell>
        <mxCell id="diniEmlQszHzwRYnbZM4-68" value="Return Edit Profile Message" style="html=1;verticalAlign=bottom;endArrow=open;dashed=1;endSize=8;entryX=1.08;entryY=0.985;entryDx=0;entryDy=0;entryPerimeter=0;" parent="1" edge="1">
          <mxGeometry x="0.1671" y="-8" relative="1" as="geometry">
            <mxPoint x="334" y="490.25" as="sourcePoint"/>
            <mxPoint x="119.79999999999995" y="490.25" as="targetPoint"/>
            <mxPoint as="offset"/>
          </mxGeometry>
        </mxCell>
        <mxCell id="bD23n69aiosnQNnkbyef-1" value="Return Profile Information" style="html=1;verticalAlign=bottom;endArrow=block;exitX=0;exitY=1;exitDx=0;exitDy=0;exitPerimeter=0;entryX=0.5;entryY=1;entryDx=0;entryDy=0;entryPerimeter=0;" edge="1" parent="1" source="diniEmlQszHzwRYnbZM4-56" target="diniEmlQszHzwRYnbZM4-52">
          <mxGeometry width="80" relative="1" as="geometry">
            <mxPoint x="160" y="270" as="sourcePoint"/>
            <mxPoint x="130" y="300" as="targetPoint"/>
          </mxGeometry>
        </mxCell>
      </root>
    </mxGraphModel>
  </diagram>
</mxfile>
